<?xml version="1.0" encoding="UTF-8"?>
<svg width="14px" height="14px" viewBox="0 0 14 14" version="1.1" xmlns="http://www.w3.org/2000/svg" xmlns:xlink="http://www.w3.org/1999/xlink">
    <!-- Generator: sketchtool 55.2 (78181) - https://sketchapp.com -->
    <title>3D0F9026-C81B-4583-8443-86F25F54288E</title>
    <desc>Created with sketchtool.</desc>
    <defs>
        <path d="M10.2221776,4.03262628 C8.51263244,2.32308115 5.74217142,2.32308115 4.03262628,4.03262628 C2.32308115,5.74217142 2.32308115,8.51263244 4.03262628,10.2221776 C5.74217142,11.9317227 8.51263244,11.9317227 10.2221776,10.2221776 C11.9317227,8.51263244 11.9317227,5.74217142 10.2221776,4.03262628 M14.7739619,14.7739619 C14.4317027,15.1153457 13.8776105,15.1153457 13.5353513,14.7739619 L10.7788958,12.016631 C8.37870494,13.8110844 4.97537084,13.6412679 2.79489109,11.4599128 C0.401702969,9.06759998 0.401702969,5.18807922 2.79489109,2.79489109 C5.18720388,0.401702969 9.06759998,0.401702969 11.4599128,2.79489109 C13.6412679,4.97537084 13.8110844,8.37870494 12.016631,10.7788958 L14.7739619,13.5362267 C15.1153457,13.8776105 15.1153457,14.4317027 14.7739619,14.7739619" id="path-1"></path>
    </defs>
    <g id="page" stroke="none" stroke-width="1" fill="none" fill-rule="evenodd">
        <g id="請求-&gt;-入金データ入力" transform="translate(-673.000000, -145.000000)">
            <g id="照合条件" transform="translate(80.000000, 56.000000)">
                <g id="Group-2" transform="translate(428.000000, 84.000000)">
                    <g id="Lv1/Icon/Search" transform="translate(164.000000, 4.000000)">
                        <mask id="mask-2" fill="white">
                            <use xlink:href="#path-1"></use>
                        </mask>
                        <g id="Search-icon"></g>
                        <g id="Color" mask="url(#mask-2)" fill="#C5D0DE">
                            <rect id="Base" x="0" y="0" width="16" height="16"></rect>
                        </g>
                    </g>
                </g>
            </g>
        </g>
    </g>
</svg>