<?xml version="1.0" encoding="UTF-8"?>
<svg width="16px" height="17px" viewBox="0 0 16 17" version="1.1" xmlns="http://www.w3.org/2000/svg" xmlns:xlink="http://www.w3.org/1999/xlink">
    <!-- Generator: sketchtool 55.2 (78181) - https://sketchapp.com -->
    <title>1856043D-6859-4377-ABFF-60AA3FC81BCA</title>
    <desc>Created with sketchtool.</desc>
    <defs>
        <path d="M14.0693125,8.04020101 C14.0693125,7.71859296 14.0693125,7.47738693 13.9877003,7.2361809 L15.7015561,5.86934673 C15.8647805,5.70854271 15.8647805,5.54773869 15.7831683,5.38693467 L14.1509246,2.57286432 C14.0693125,2.49246231 13.9060881,2.4120603 13.6612515,2.49246231 L12,3 C11.5919391,2.67839196 10.4896731,2.24120603 10,2 L9.90709109,0.40201005 C9.98870328,0.16080402 9.74386672,0 9.58064236,0 L6.31615501,0 C6.15293064,0 5.90809409,0.16080402 5.90809409,0.32160804 L6,2 C5.5103269,2.16080402 4.4896731,2.67839196 4,3 L2.23554582,2.49246231 C1.99070927,2.4120603 1.8274849,2.49246231 1.66426053,2.65326633 L0.0320168551,5.46733668 C-0.0495953286,5.54773869 0.0320168551,5.78894472 0.195241223,5.94974874 L2.08161218,7.1959799 C2.08161218,7.43718593 2,7.67839196 2,8 C2,8.32160804 2,8.56281407 2.08161218,8.8040201 L0.195241223,10.2110553 C0.0320168551,10.3718593 0.0320168551,10.5326633 0.113629039,10.6934673 L1.74587271,13.5075377 C1.8274849,13.5879397 1.99070927,13.6683417 2.23554582,13.5879397 L4,13 C4.40806092,13.321608 5.5103269,13.758794 6,14 L5.98970627,15.678392 C5.98970627,15.839196 6.15293064,16 6.39776719,16 L9.66225454,16 C9.82547891,16 10.0703155,15.839196 10.0703155,15.678392 L10,14 C10.4896731,13.758794 11.5919391,13.321608 12,13 L13.8244759,13.5879397 C13.9877003,13.6683417 14.2325368,13.5879397 14.314149,13.4271357 L15.9463927,10.6130653 C16.0280049,10.4522613 16.0280049,10.2110553 15.8647805,10.1306533 L13.9877003,8.84422111 C13.9877003,8.60301508 14.0693125,8.36180905 14.0693125,8.04020101 Z M7.99138439,10.8 C6.36281296,10.8 4.99138439,9.42857143 4.99138439,7.8 C4.99138439,6.17142857 6.36281296,4.8 7.99138439,4.8 C9.61995582,4.8 10.9913844,6.17142857 10.9913844,7.8 C10.9913844,9.42857143 9.61995582,10.8 7.99138439,10.8 L7.99138439,10.8 Z" id="path-1"></path>
    </defs>
    <g id="page" stroke="none" stroke-width="1" fill="none" fill-rule="evenodd">
        <g id="ホーム" transform="translate(-24.000000, -318.000000)">
            <g id="Common/sidebar_Close">
                <g id="Group-3" transform="translate(0.000000, 48.000000)">
                    <g id="設定" transform="translate(0.000000, 261.000000)">
                        <g id="Icon/SideMenu" transform="translate(24.000000, 9.600000)">
                            <mask id="mask-2" fill="white">
                                <use xlink:href="#path-1"></use>
                            </mask>
                            <use id="Mask" fill="#95A5A6" xlink:href="#path-1"></use>
                            <g id="Color" mask="url(#mask-2)" fill="#FFFFFF">
                                <g transform="translate(8.000000, 8.000000) rotate(-270.000000) translate(-8.000000, -8.000000) " id="Base">
                                    <rect x="0" y="0" width="16" height="16"></rect>
                                </g>
                            </g>
                        </g>
                    </g>
                </g>
            </g>
        </g>
    </g>
</svg>