<?xml version="1.0" encoding="UTF-8"?>
<svg width="16px" height="17px" viewBox="0 0 16 17" version="1.1" xmlns="http://www.w3.org/2000/svg" xmlns:xlink="http://www.w3.org/1999/xlink">
    <!-- Generator: sketchtool 55.2 (78181) - https://sketchapp.com -->
    <title>07F469BE-00FE-40A9-8240-6CBEC84C5636</title>
    <desc>Created with sketchtool.</desc>
    <defs>
        <rect id="path-1" x="0" y="0" width="16" height="16" rx="4"></rect>
        <path d="M7.4393,11.0103 C7.0483,11.4013 6.4153,11.4013 6.0253,11.0103 L4.4893,9.4753 C4.0993,9.0843 4.0993,8.4513 4.4893,8.0603 C4.8803,7.6703 5.5133,7.6703 5.9033,8.0603 L6.7323,8.8893 L10.0963,5.5253 C10.4863,5.1343 11.1193,5.1343 11.5103,5.5253 C11.9013,5.9153 11.9013,6.5483 11.5103,6.9393 L7.4393,11.0103 Z" id="path-3"></path>
    </defs>
    <g id="page" stroke="none" stroke-width="1" fill="none" fill-rule="evenodd">
        <g id="ホーム" transform="translate(-24.000000, -201.000000)">
            <g id="Common/sidebar_Close">
                <g id="Group-3" transform="translate(0.000000, 48.000000)">
                    <g id="消込" transform="translate(0.000000, 144.000000)">
                        <g id="Icon/SideMenu" transform="translate(24.000000, 9.600000)">
                            <g id="Base-/-Layout">
                                <mask id="mask-2" fill="white">
                                    <use xlink:href="#path-1"></use>
                                </mask>
                                <use id="Base" fill="#FFFFFF" xlink:href="#path-1"></use>
                                <g id="Color" mask="url(#mask-2)" fill="#FFFFFF">
                                    <rect id="Base" x="0" y="0" width="16" height="16"></rect>
                                </g>
                            </g>
                            <g id="Border" stroke="#000000" stroke-opacity="0.1">
                                <path d="M3,0.5 C1.61928813,0.5 0.5,1.61928813 0.5,3 L0.5,13 C0.5,14.3807119 1.61928813,15.5 3,15.5 L13,15.5 C14.3807119,15.5 15.5,14.3807119 15.5,13 L15.5,3 C15.5,1.61928813 14.3807119,0.5 13,0.5 L3,0.5 Z" id="Border-Shape"></path>
                            </g>
                            <g id="Icon">
                                <mask id="mask-4" fill="white">
                                    <use xlink:href="#path-3"></use>
                                </mask>
                                <g id="Positive-Icon"></g>
                                <g id="Color" mask="url(#mask-4)" fill="#000034">
                                    <rect id="Base" x="0" y="0" width="16" height="16"></rect>
                                </g>
                            </g>
                        </g>
                    </g>
                </g>
            </g>
        </g>
    </g>
</svg>