<?xml version="1.0" encoding="UTF-8"?>
<svg width="14px" height="14px" viewBox="0 0 14 14" version="1.1" xmlns="http://www.w3.org/2000/svg" xmlns:xlink="http://www.w3.org/1999/xlink">
    <!-- Generator: sketchtool 55.2 (78181) - https://sketchapp.com -->
    <title>D96509BF-6B68-401E-93BC-0DB749CED35B</title>
    <desc>Created with sketchtool.</desc>
    <defs>
        <path d="M9.416625,11.50525 L6.5825,11.50525 C6.396125,11.50525 6.245625,11.329375 6.245625,11.11325 C6.245625,10.897125 6.396125,10.72125 6.5825,10.72125 L7.125,10.625 L7.125,8 L6.5825,7.8985 C6.396125,7.8985 6.245625,7.722625 6.245625,7.5065 C6.245625,7.290375 6.396125,7.1145 6.5825,7.1145 L8.78225,7.1145 C8.849625,7.1145 8.8715,7.0865 8.881125,7.06375 C8.8785,7.076875 8.875,7.089125 8.875,7.125 L8.875,10.625 L9.416625,10.72125 C9.603,10.72125 9.754375,10.897125 9.754375,11.11325 C9.754375,11.329375 9.603,11.50525 9.416625,11.50525 L9.416625,11.50525 Z M7.125,4.5 L7.9825,4.5 C7.988625,4.5 7.993875,4.4965 8,4.4965 C8.006125,4.4965 8.011375,4.5 8.0175,4.5 L8.875,4.5 L8.875,5.3225 C8.875875,5.34175 8.8855,5.3575 8.8855,5.375875 C8.8855,5.395125 8.875875,5.410875 8.875,5.42925 L8.875,6.25 L8.028875,6.25 C8.018375,6.250875 8.009625,6.256125 8,6.256125 C7.9895,6.256125 7.98075,6.250875 7.971125,6.25 L7.125,6.25 L7.125,5.428375 C7.12325,5.41 7.113625,5.395125 7.113625,5.375875 C7.113625,5.3575 7.12325,5.34175 7.125,5.323375 L7.125,4.5 Z M8,1 C4.133375,1 1,4.13425 1,8 C1,11.86575 4.133375,15 8,15 C11.86575,15 15,11.86575 15,8 C15,4.13425 11.86575,1 8,1 L8,1 Z" id="path-1"></path>
    </defs>
    <g id="page" stroke="none" stroke-width="1" fill="none" fill-rule="evenodd">
        <g id="メニュー-&gt;-サブメニュー" transform="translate(-912.000000, -187.000000)">
            <g id="Notifications" transform="translate(895.000000, 126.000000)">
                <g id="Notification---Status" transform="translate(0.000000, 52.000000)">
                    <g id="Icon-(Left)" transform="translate(16.000000, 8.000000)">
                        <mask id="mask-2" fill="white">
                            <use xlink:href="#path-1"></use>
                        </mask>
                        <g id="Info-Icon"></g>
                        <g id="Color" mask="url(#mask-2)" fill="#FFFFFF">
                            <rect id="Base" x="0" y="0" width="16" height="16"></rect>
                        </g>
                    </g>
                </g>
            </g>
        </g>
    </g>
</svg>