<svg height="15" viewBox="0 0 14 15" width="14" xmlns="http://www.w3.org/2000/svg"><path d="m15.25 7.75-2.9090909-3v2.25h-5.0909091v1.5h5.0909091v2.25zm-7.64348463 4.125c-2.42313323 0-4.39238653-1.849375-4.39238653-4.125s1.9692533-4.125 4.39238653-4.125c1.21522694 0 2.31332358.460625 3.10395313 1.21l1.0395315-1.969375c-1.0614934-.996875-2.52562225-1.615625-4.14348463-1.615625-3.23572474 0-6.35651537 1.5-6.85651537 6.5.5 5 3.62079063 6.5 6.85651537 6.5 1.61786238 0 3.08199123-.61875 4.14348463-1.60875l-1.0395315-1.969375c-.79062955.7425-1.88872619 1.203125-3.10395313 1.203125z" fill="#fff" transform="matrix(0 1 -1 0 14.75 -.25)"/></svg>