<?xml version="1.0" encoding="UTF-8"?>
<svg width="16px" height="17px" viewBox="0 0 16 17" version="1.1" xmlns="http://www.w3.org/2000/svg" xmlns:xlink="http://www.w3.org/1999/xlink">
    <!-- Generator: sketchtool 55.2 (78181) - https://sketchapp.com -->
    <title>D22AAB3B-D7B7-4D92-A490-889A0CF5FFD7</title>
    <desc>Created with sketchtool.</desc>
    <defs>
        <path d="M14,11.0909091 C14,11.68 13.68,12 13.1666667,12 L9,12 L9,2 L13.1666667,2 C13.68,2 14,2.32 14,2.90909091 L14,11.0909091 Z M7,12 L2.83333333,12 C2.32,12 2,11.68 2,11.0909091 L2,2.90909091 C2,2.32 2.32,2 2.83333333,2 L7,2 L7,12 Z M2,0 C1,0 0,1 0,2 L0,13 C0,14 1,14 2,14 L7,14 L7,15 C7.2,15.6416 7.5584,16 8,16 C8.4416,16 8.8,15.6416 9,15 L9,14 L14,14 C15,14 16,14 16,13 L16,2 C16,1 15,0 14,0 L2,0 Z" id="path-1"></path>
    </defs>
    <g id="page" stroke="none" stroke-width="1" fill="none" fill-rule="evenodd">
        <g id="ホーム" transform="translate(-24.000000, -105.000000)">
            <g id="Common/sidebar_Close">
                <g id="Group-3" transform="translate(0.000000, 48.000000)">
                    <g id="請求" transform="translate(0.000000, 48.000000)">
                        <g id="Icon/SideMenu" transform="translate(24.000000, 9.600000)">
                            <mask id="mask-2" fill="white">
                                <use xlink:href="#path-1"></use>
                            </mask>
                            <use id="Mask" fill="#95A5A6" xlink:href="#path-1"></use>
                            <g id="Color" mask="url(#mask-2)" fill="#FFFFFF">
                                <rect id="Base" x="0" y="0" width="16" height="16"></rect>
                            </g>
                        </g>
                    </g>
                </g>
            </g>
        </g>
    </g>
</svg>