<?xml version="1.0" encoding="UTF-8"?>
<svg width="14px" height="14px" viewBox="0 0 14 14" version="1.1" xmlns="http://www.w3.org/2000/svg" xmlns:xlink="http://www.w3.org/1999/xlink">
    <!-- Generator: sketchtool 55.2 (78181) - https://sketchapp.com -->
    <title>2AFEA89C-D29D-46C1-B5B3-078638A0ACFE</title>
    <desc>Created with sketchtool.</desc>
    <defs>
        <path d="M8,1 C11.86575,1 15,4.13425 15,8 C15,11.86575 11.86575,15 8,15 C4.133375,15 1,11.86575 1,8 C1,4.13425 4.133375,1 8,1 Z M7.5093875,10.6340125 L11.0715125,7.0718875 C11.4136375,6.7297625 11.4136375,6.1758875 11.0715125,5.8346375 C10.7293875,5.4925125 10.1755125,5.4925125 9.8342625,5.8346375 L6.8907625,8.7781375 L6.1653875,8.0527625 C5.8241375,7.7115125 5.2702625,7.7115125 4.9281375,8.0527625 C4.5868875,8.3948875 4.5868875,8.9487625 4.9281375,9.2908875 L6.2721375,10.6340125 C6.6133875,10.9761375 7.1672625,10.9761375 7.5093875,10.6340125 Z" id="path-1"></path>
    </defs>
    <g id="page" stroke="none" stroke-width="1" fill="none" fill-rule="evenodd">
        <g id="メニュー-&gt;-サブメニュー" transform="translate(-912.000000, -135.000000)">
            <g id="Notifications" transform="translate(895.000000, 126.000000)">
                <g id="Notification---Success">
                    <g id="Icon-(Left)" transform="translate(16.000000, 8.000000)">
                        <mask id="mask-2" fill="white">
                            <use xlink:href="#path-1"></use>
                        </mask>
                        <g id="Positive-Icon"></g>
                        <g id="Color" mask="url(#mask-2)" fill="#FFFFFF">
                            <rect id="Base" x="0" y="0" width="16" height="16"></rect>
                        </g>
                    </g>
                </g>
            </g>
        </g>
    </g>
</svg>